# xmcd
#
# Track frame offsets:
#	150
#	11775
#	24950
#	37297
#	50792
#	67352
#	83660
#	98157
#	111490
#	127717
#	142727
#
# Disc length: 2109 seconds
#
# Revision: 0
# Processed by: cddbd v1.5.1PL0 Copyright (c) Steve Scherf et al.
# Submitted via: dBpowerAMP V4.0
#
DISCID=96083b0b
DTITLE=Waylon Jennings - 20th Century Masters: The Millennium Collection
DYEAR=2000
DGENRE=Country
TTITLE0=Rough And Rowdy Days
TTITLE1=If Old Hank Could Only See Us Now
TTITLE2=Working Without A Net
TTITLE3=What You'll Do When I'm Gone
TTITLE4=Rose In Paradise
TTITLE5=Fallin' Out
TTITLE6=Which Way Do I Go ( Now That I'm Gone )
TTITLE7=How Much Is It Worth To Live In L. A.
TTITLE8=You Put The Soul In The Song
TTITLE9=Trouble Man
TTITLE10=Will The Wolf Survive
EXTD=
EXTT0=
EXTT1=
EXTT2=
EXTT3=
EXTT4=
EXTT5=
EXTT6=
EXTT7=
EXTT8=
EXTT9=
EXTT10=
PLAYORDER=
